<svg width="1440" height="203" viewBox="0 0 1440 203" fill="none" xmlns="http://www.w3.org/2000/svg">
<g clip-path="url(#clip0_401_7475)">
<rect width="1440" height="203" fill="#803785"/>
<g opacity="0.4">
<circle cx="1332" cy="181" r="217.5" stroke="white" stroke-dasharray="4 4"/>
<circle cx="695" r="374.5" stroke="white" stroke-dasharray="4 4"/>
<circle cx="65" cy="174" r="217.5" stroke="white" stroke-dasharray="4 4"/>
</g>
<path d="M586.26 83.44H590.076L600.012 109H595.764L593.064 102.052H583.2L580.536 109H576.252L586.26 83.44ZM592.272 99.064L588.168 87.868L583.92 99.064H592.272ZM609.084 109.36C607.5 109.36 606 109.108 604.584 108.604C603.168 108.076 601.956 107.296 600.948 106.264L602.424 103.6C603.504 104.56 604.584 105.256 605.664 105.688C606.768 106.12 607.86 106.336 608.94 106.336C610.044 106.336 610.944 106.132 611.64 105.724C612.336 105.292 612.684 104.668 612.684 103.852C612.684 103.252 612.504 102.808 612.144 102.52C611.784 102.232 611.256 101.98 610.56 101.764C609.888 101.548 609.072 101.308 608.112 101.044C606.768 100.636 605.64 100.216 604.728 99.784C603.816 99.328 603.132 98.776 602.676 98.128C602.22 97.48 601.992 96.652 601.992 95.644C601.992 94.42 602.304 93.376 602.928 92.512C603.552 91.648 604.416 90.988 605.52 90.532C606.648 90.076 607.944 89.848 609.408 89.848C610.776 89.848 612.036 90.064 613.188 90.496C614.364 90.904 615.396 91.552 616.284 92.44L614.592 95.068C613.752 94.3 612.888 93.736 612 93.376C611.136 93.016 610.2 92.836 609.192 92.836C608.616 92.836 608.064 92.908 607.536 93.052C607.008 93.172 606.564 93.412 606.204 93.772C605.868 94.108 605.7 94.588 605.7 95.212C605.7 95.716 605.844 96.124 606.132 96.436C606.42 96.748 606.852 97.012 607.428 97.228C608.004 97.444 608.712 97.684 609.552 97.948C611.016 98.38 612.264 98.812 613.296 99.244C614.328 99.652 615.12 100.192 615.672 100.864C616.248 101.512 616.536 102.412 616.536 103.564C616.536 105.388 615.852 106.816 614.484 107.848C613.14 108.856 611.34 109.36 609.084 109.36ZM626.767 109.36C625.183 109.36 623.683 109.108 622.267 108.604C620.851 108.076 619.639 107.296 618.631 106.264L620.107 103.6C621.187 104.56 622.267 105.256 623.347 105.688C624.451 106.12 625.543 106.336 626.623 106.336C627.727 106.336 628.627 106.132 629.323 105.724C630.019 105.292 630.367 104.668 630.367 103.852C630.367 103.252 630.187 102.808 629.827 102.52C629.467 102.232 628.939 101.98 628.243 101.764C627.571 101.548 626.755 101.308 625.795 101.044C624.451 100.636 623.323 100.216 622.411 99.784C621.499 99.328 620.815 98.776 620.359 98.128C619.903 97.48 619.675 96.652 619.675 95.644C619.675 94.42 619.987 93.376 620.611 92.512C621.235 91.648 622.099 90.988 623.203 90.532C624.331 90.076 625.627 89.848 627.091 89.848C628.459 89.848 629.719 90.064 630.871 90.496C632.047 90.904 633.079 91.552 633.967 92.44L632.275 95.068C631.435 94.3 630.571 93.736 629.683 93.376C628.819 93.016 627.883 92.836 626.875 92.836C626.299 92.836 625.747 92.908 625.219 93.052C624.691 93.172 624.247 93.412 623.887 93.772C623.551 94.108 623.383 94.588 623.383 95.212C623.383 95.716 623.527 96.124 623.815 96.436C624.103 96.748 624.535 97.012 625.111 97.228C625.687 97.444 626.395 97.684 627.235 97.948C628.699 98.38 629.947 98.812 630.979 99.244C632.011 99.652 632.803 100.192 633.355 100.864C633.931 101.512 634.219 102.412 634.219 103.564C634.219 105.388 633.535 106.816 632.167 107.848C630.823 108.856 629.023 109.36 626.767 109.36ZM637.755 109V90.172H641.715V109H637.755ZM637.755 87.076V82.72H641.715V87.076H637.755ZM653.926 109.18C652.654 109.18 651.49 108.928 650.434 108.424C649.378 107.896 648.466 107.188 647.698 106.3C646.954 105.412 646.366 104.392 645.934 103.24C645.526 102.088 645.322 100.876 645.322 99.604C645.322 98.26 645.538 97 645.97 95.824C646.402 94.648 647.002 93.616 647.77 92.728C648.562 91.816 649.486 91.108 650.542 90.604C651.598 90.1 652.774 89.848 654.07 89.848C655.582 89.848 656.902 90.208 658.03 90.928C659.182 91.648 660.13 92.584 660.874 93.736V90.172H664.366V108.46C664.366 110.284 663.922 111.832 663.034 113.104C662.17 114.376 660.982 115.348 659.47 116.02C657.958 116.692 656.254 117.028 654.358 117.028C652.27 117.028 650.542 116.668 649.174 115.948C647.806 115.228 646.642 114.244 645.682 112.996L647.914 110.908C648.634 111.916 649.558 112.684 650.686 113.212C651.838 113.74 653.062 114.004 654.358 114.004C655.438 114.004 656.434 113.8 657.346 113.392C658.282 113.008 659.026 112.396 659.578 111.556C660.13 110.74 660.406 109.708 660.406 108.46V105.58C659.734 106.708 658.81 107.596 657.634 108.244C656.458 108.868 655.222 109.18 653.926 109.18ZM655.222 105.976C655.822 105.976 656.398 105.88 656.95 105.688C657.502 105.472 658.006 105.196 658.462 104.86C658.942 104.5 659.35 104.104 659.686 103.672C660.022 103.216 660.262 102.736 660.406 102.232V97.3C660.094 96.484 659.65 95.776 659.074 95.176C658.498 94.552 657.85 94.072 657.13 93.736C656.41 93.4 655.678 93.232 654.934 93.232C654.07 93.232 653.29 93.424 652.594 93.808C651.922 94.168 651.346 94.66 650.866 95.284C650.386 95.884 650.014 96.568 649.75 97.336C649.486 98.104 649.354 98.896 649.354 99.712C649.354 100.576 649.498 101.38 649.786 102.124C650.098 102.868 650.518 103.54 651.046 104.14C651.574 104.716 652.198 105.172 652.918 105.508C653.638 105.82 654.406 105.976 655.222 105.976ZM685.998 109H682.038V98.452C682.038 96.7 681.75 95.416 681.174 94.6C680.622 93.784 679.794 93.376 678.69 93.376C677.922 93.376 677.154 93.568 676.386 93.952C675.642 94.336 674.97 94.864 674.37 95.536C673.77 96.184 673.338 96.94 673.074 97.804V109H669.114V90.172H672.714V93.952C673.194 93.112 673.818 92.392 674.586 91.792C675.378 91.168 676.266 90.688 677.25 90.352C678.234 90.016 679.278 89.848 680.382 89.848C681.51 89.848 682.434 90.052 683.154 90.46C683.898 90.868 684.474 91.432 684.882 92.152C685.314 92.848 685.602 93.664 685.746 94.6C685.914 95.512 685.998 96.484 685.998 97.516V109ZM699.127 109.36C697.663 109.36 696.331 109.108 695.131 108.604C693.955 108.076 692.935 107.368 692.071 106.48C691.207 105.568 690.535 104.536 690.055 103.384C689.599 102.208 689.371 100.96 689.371 99.64C689.371 97.864 689.779 96.244 690.595 94.78C691.411 93.292 692.551 92.104 694.015 91.216C695.479 90.304 697.195 89.848 699.163 89.848C701.131 89.848 702.823 90.304 704.239 91.216C705.679 92.104 706.795 93.28 707.587 94.744C708.379 96.208 708.775 97.78 708.775 99.46C708.775 99.748 708.763 100.024 708.739 100.288C708.715 100.528 708.691 100.732 708.667 100.9H693.583C693.655 102.004 693.955 102.976 694.483 103.816C695.035 104.632 695.731 105.28 696.571 105.76C697.411 106.216 698.311 106.444 699.271 106.444C700.327 106.444 701.323 106.18 702.259 105.652C703.219 105.124 703.867 104.428 704.203 103.564L707.587 104.536C707.179 105.448 706.555 106.276 705.715 107.02C704.899 107.74 703.927 108.316 702.799 108.748C701.671 109.156 700.447 109.36 699.127 109.36ZM693.475 98.272H704.851C704.779 97.192 704.467 96.244 703.915 95.428C703.387 94.588 702.703 93.94 701.863 93.484C701.047 93.004 700.135 92.764 699.127 92.764C698.143 92.764 697.231 93.004 696.391 93.484C695.575 93.94 694.903 94.588 694.375 95.428C693.847 96.244 693.547 97.192 693.475 98.272ZM710.817 99.604C710.817 97.804 711.177 96.172 711.897 94.708C712.641 93.22 713.649 92.044 714.921 91.18C716.193 90.292 717.657 89.848 719.313 89.848C720.753 89.848 722.049 90.22 723.201 90.964C724.377 91.708 725.289 92.632 725.937 93.736V82.72H729.897V104.536C729.897 104.992 729.981 105.316 730.149 105.508C730.317 105.7 730.593 105.808 730.977 105.832V109C730.233 109.12 729.657 109.18 729.249 109.18C728.505 109.18 727.869 108.964 727.341 108.532C726.837 108.1 726.573 107.584 726.549 106.984L726.513 105.58C725.793 106.78 724.821 107.716 723.597 108.388C722.373 109.036 721.101 109.36 719.781 109.36C718.485 109.36 717.285 109.108 716.181 108.604C715.101 108.1 714.153 107.392 713.337 106.48C712.545 105.568 711.921 104.524 711.465 103.348C711.033 102.172 710.817 100.924 710.817 99.604ZM725.937 102.232V97.3C725.673 96.532 725.241 95.848 724.641 95.248C724.065 94.624 723.405 94.132 722.661 93.772C721.941 93.412 721.221 93.232 720.501 93.232C719.661 93.232 718.893 93.412 718.197 93.772C717.525 94.132 716.937 94.612 716.433 95.212C715.953 95.812 715.581 96.496 715.317 97.264C715.053 98.032 714.921 98.836 714.921 99.676C714.921 100.54 715.065 101.356 715.353 102.124C715.641 102.868 716.049 103.54 716.577 104.14C717.129 104.716 717.753 105.172 718.449 105.508C719.169 105.82 719.949 105.976 720.789 105.976C721.317 105.976 721.845 105.88 722.373 105.688C722.925 105.496 723.441 105.232 723.921 104.896C724.425 104.56 724.845 104.164 725.181 103.708C725.541 103.252 725.793 102.76 725.937 102.232ZM765.817 109V90.784L758.293 104.608H755.917L748.357 90.784V109H744.325V83.44H748.645L757.105 99.064L765.565 83.44H769.885V109H765.817ZM783.361 109.36C781.897 109.36 780.565 109.108 779.365 108.604C778.189 108.076 777.169 107.368 776.305 106.48C775.441 105.568 774.769 104.536 774.289 103.384C773.833 102.208 773.605 100.96 773.605 99.64C773.605 97.864 774.013 96.244 774.829 94.78C775.645 93.292 776.785 92.104 778.249 91.216C779.713 90.304 781.429 89.848 783.397 89.848C785.365 89.848 787.057 90.304 788.473 91.216C789.913 92.104 791.029 93.28 791.821 94.744C792.613 96.208 793.009 97.78 793.009 99.46C793.009 99.748 792.997 100.024 792.973 100.288C792.949 100.528 792.925 100.732 792.901 100.9H777.817C777.889 102.004 778.189 102.976 778.717 103.816C779.269 104.632 779.965 105.28 780.805 105.76C781.645 106.216 782.545 106.444 783.505 106.444C784.561 106.444 785.557 106.18 786.493 105.652C787.453 105.124 788.101 104.428 788.437 103.564L791.821 104.536C791.413 105.448 790.789 106.276 789.949 107.02C789.133 107.74 788.161 108.316 787.033 108.748C785.905 109.156 784.681 109.36 783.361 109.36ZM777.709 98.272H789.085C789.013 97.192 788.701 96.244 788.149 95.428C787.621 94.588 786.937 93.94 786.097 93.484C785.281 93.004 784.369 92.764 783.361 92.764C782.377 92.764 781.465 93.004 780.625 93.484C779.809 93.94 779.137 94.588 778.609 95.428C778.081 96.244 777.781 97.192 777.709 98.272ZM813.123 109H809.163V98.452C809.163 96.7 808.875 95.416 808.299 94.6C807.747 93.784 806.919 93.376 805.815 93.376C805.047 93.376 804.279 93.568 803.511 93.952C802.767 94.336 802.095 94.864 801.495 95.536C800.895 96.184 800.463 96.94 800.199 97.804V109H796.239V90.172H799.839V93.952C800.319 93.112 800.943 92.392 801.711 91.792C802.503 91.168 803.391 90.688 804.375 90.352C805.359 90.016 806.403 89.848 807.507 89.848C808.635 89.848 809.559 90.052 810.279 90.46C811.023 90.868 811.599 91.432 812.007 92.152C812.439 92.848 812.727 93.664 812.871 94.6C813.039 95.512 813.123 96.484 813.123 97.516V109ZM828.055 108.028C827.719 108.196 827.299 108.376 826.795 108.568C826.291 108.76 825.715 108.928 825.067 109.072C824.443 109.216 823.795 109.288 823.123 109.288C822.307 109.288 821.551 109.144 820.855 108.856C820.159 108.568 819.595 108.112 819.163 107.488C818.755 106.84 818.551 106.012 818.551 105.004V93.232H816.067V90.172H818.551V83.98H822.511V90.172H826.615V93.232H822.511V103.744C822.559 104.392 822.763 104.872 823.123 105.184C823.507 105.496 823.975 105.652 824.527 105.652C825.079 105.652 825.607 105.556 826.111 105.364C826.615 105.172 826.987 105.016 827.227 104.896L828.055 108.028ZM839.012 109.36C837.524 109.36 836.192 109.108 835.016 108.604C833.84 108.076 832.82 107.356 831.956 106.444C831.116 105.532 830.468 104.5 830.012 103.348C829.556 102.172 829.328 100.924 829.328 99.604C829.328 98.284 829.556 97.036 830.012 95.86C830.468 94.684 831.116 93.652 831.956 92.764C832.82 91.852 833.84 91.144 835.016 90.64C836.216 90.112 837.548 89.848 839.012 89.848C840.476 89.848 841.796 90.112 842.972 90.64C844.172 91.144 845.192 91.852 846.032 92.764C846.896 93.652 847.556 94.684 848.012 95.86C848.468 97.036 848.696 98.284 848.696 99.604C848.696 100.924 848.468 102.172 848.012 103.348C847.556 104.5 846.896 105.532 846.032 106.444C845.192 107.356 844.172 108.076 842.972 108.604C841.796 109.108 840.476 109.36 839.012 109.36ZM833.396 99.64C833.396 100.84 833.648 101.92 834.152 102.88C834.656 103.84 835.328 104.596 836.168 105.148C837.008 105.7 837.956 105.976 839.012 105.976C840.044 105.976 840.98 105.7 841.82 105.148C842.684 104.572 843.368 103.804 843.872 102.844C844.376 101.86 844.628 100.78 844.628 99.604C844.628 98.404 844.376 97.324 843.872 96.364C843.368 95.404 842.684 94.648 841.82 94.096C840.98 93.52 840.044 93.232 839.012 93.232C837.956 93.232 837.008 93.52 836.168 94.096C835.328 94.672 834.656 95.44 834.152 96.4C833.648 97.336 833.396 98.416 833.396 99.64ZM862.792 93.592C861.256 93.616 859.888 93.964 858.688 94.636C857.512 95.308 856.672 96.256 856.168 97.48V109H852.208V90.172H855.88V94.384C856.528 93.088 857.38 92.056 858.436 91.288C859.492 90.496 860.608 90.064 861.784 89.992C862.024 89.992 862.216 89.992 862.36 89.992C862.528 89.992 862.672 90.004 862.792 90.028V93.592Z" fill="white"/>
</g>
<defs>
<clipPath id="clip0_401_7475">
<rect width="1440" height="203" fill="white"/>
</clipPath>
</defs>
</svg>
