<svg width="1440" height="203" viewBox="0 0 1440 203" fill="none" xmlns="http://www.w3.org/2000/svg">
<g clip-path="url(#clip0_390_8297)">
<rect width="1440" height="203" fill="#803785"/>
<g opacity="0.08">
<path d="M-80.9476 26.8764L120.708 83.4297C180.971 100.33 243.775 66.3767 262.637 6.69919L297.162 -102.527L343.402 -267" stroke="#E9EBF8" stroke-width="6"/>
<path d="M1678.72 67.3156L1469.77 52.9868C1407.33 48.7047 1352.75 94.7292 1346.43 156.997L1334.86 270.963L1323.06 441.405" stroke="#E9EBF8" stroke-width="6"/>
<path d="M977.761 343.92L826.581 198.979C781.402 155.665 710.009 156.001 665.24 199.739L583.3 279.79L464.984 403.041" stroke="#E9EBF8" stroke-width="6"/>
</g>
<path d="M638.372 109V90.784L630.848 104.608H628.472L620.912 90.784V109H616.88V83.44H621.2L629.66 99.064L638.12 83.44H642.44V109H638.372ZM647.7 109V90.172H651.66V109H647.7ZM647.7 87.076V82.72H651.66V87.076H647.7ZM656.455 82.72H660.415V103.564C660.415 104.524 660.559 105.136 660.847 105.4C661.135 105.664 661.495 105.796 661.927 105.796C662.407 105.796 662.851 105.748 663.259 105.652C663.691 105.556 664.063 105.436 664.375 105.292L664.951 108.424C664.375 108.664 663.691 108.868 662.899 109.036C662.107 109.204 661.399 109.288 660.775 109.288C659.431 109.288 658.375 108.916 657.607 108.172C656.839 107.404 656.455 106.348 656.455 105.004V82.72ZM673.943 109.36C672.359 109.36 670.859 109.108 669.443 108.604C668.027 108.076 666.815 107.296 665.807 106.264L667.283 103.6C668.363 104.56 669.443 105.256 670.523 105.688C671.627 106.12 672.719 106.336 673.799 106.336C674.903 106.336 675.803 106.132 676.499 105.724C677.195 105.292 677.543 104.668 677.543 103.852C677.543 103.252 677.363 102.808 677.003 102.52C676.643 102.232 676.115 101.98 675.419 101.764C674.747 101.548 673.931 101.308 672.971 101.044C671.627 100.636 670.499 100.216 669.587 99.784C668.675 99.328 667.991 98.776 667.535 98.128C667.079 97.48 666.851 96.652 666.851 95.644C666.851 94.42 667.163 93.376 667.787 92.512C668.411 91.648 669.275 90.988 670.379 90.532C671.507 90.076 672.803 89.848 674.267 89.848C675.635 89.848 676.895 90.064 678.047 90.496C679.223 90.904 680.255 91.552 681.143 92.44L679.451 95.068C678.611 94.3 677.747 93.736 676.859 93.376C675.995 93.016 675.059 92.836 674.051 92.836C673.475 92.836 672.923 92.908 672.395 93.052C671.867 93.172 671.423 93.412 671.063 93.772C670.727 94.108 670.559 94.588 670.559 95.212C670.559 95.716 670.703 96.124 670.991 96.436C671.279 96.748 671.711 97.012 672.287 97.228C672.863 97.444 673.571 97.684 674.411 97.948C675.875 98.38 677.123 98.812 678.155 99.244C679.187 99.652 679.979 100.192 680.531 100.864C681.107 101.512 681.395 102.412 681.395 103.564C681.395 105.388 680.711 106.816 679.343 107.848C677.999 108.856 676.199 109.36 673.943 109.36ZM683.563 103.492C683.563 102.292 683.899 101.248 684.571 100.36C685.267 99.448 686.215 98.752 687.415 98.272C688.615 97.768 690.007 97.516 691.591 97.516C692.431 97.516 693.283 97.576 694.147 97.696C695.035 97.816 695.815 98.008 696.487 98.272V97.084C696.487 95.764 696.091 94.732 695.299 93.988C694.507 93.244 693.367 92.872 691.879 92.872C690.823 92.872 689.827 93.064 688.891 93.448C687.955 93.808 686.959 94.324 685.903 94.996L684.571 92.332C685.819 91.492 687.067 90.868 688.315 90.46C689.587 90.052 690.919 89.848 692.311 89.848C694.831 89.848 696.811 90.52 698.251 91.864C699.715 93.184 700.447 95.068 700.447 97.516V104.536C700.447 104.992 700.519 105.316 700.663 105.508C700.831 105.7 701.107 105.808 701.491 105.832V109C701.131 109.072 700.807 109.12 700.519 109.144C700.231 109.168 699.991 109.18 699.799 109.18C698.959 109.18 698.323 108.976 697.891 108.568C697.459 108.16 697.207 107.68 697.135 107.128L697.027 106.048C696.211 107.104 695.167 107.92 693.895 108.496C692.623 109.072 691.339 109.36 690.043 109.36C688.795 109.36 687.679 109.108 686.695 108.604C685.711 108.076 684.943 107.368 684.391 106.48C683.839 105.592 683.563 104.596 683.563 103.492ZM695.551 104.644C695.839 104.332 696.067 104.02 696.235 103.708C696.403 103.396 696.487 103.12 696.487 102.88V100.72C695.815 100.456 695.107 100.264 694.363 100.144C693.619 100 692.887 99.928 692.167 99.928C690.727 99.928 689.551 100.216 688.639 100.792C687.751 101.368 687.307 102.16 687.307 103.168C687.307 103.72 687.451 104.248 687.739 104.752C688.051 105.256 688.483 105.664 689.035 105.976C689.611 106.288 690.319 106.444 691.159 106.444C692.023 106.444 692.851 106.276 693.643 105.94C694.435 105.604 695.071 105.172 695.551 104.644ZM715.586 108.028C715.25 108.196 714.83 108.376 714.326 108.568C713.822 108.76 713.246 108.928 712.598 109.072C711.974 109.216 711.326 109.288 710.654 109.288C709.838 109.288 709.082 109.144 708.386 108.856C707.69 108.568 707.126 108.112 706.694 107.488C706.286 106.84 706.082 106.012 706.082 105.004V93.232H703.598V90.172H706.082V83.98H710.042V90.172H714.146V93.232H710.042V103.744C710.09 104.392 710.294 104.872 710.654 105.184C711.038 105.496 711.506 105.652 712.058 105.652C712.61 105.652 713.138 105.556 713.642 105.364C714.146 105.172 714.518 105.016 714.758 104.896L715.586 108.028ZM727.728 109V83.44H731.76V109H727.728ZM753.916 109H749.956V98.452C749.956 96.7 749.668 95.416 749.092 94.6C748.54 93.784 747.712 93.376 746.608 93.376C745.84 93.376 745.072 93.568 744.304 93.952C743.56 94.336 742.888 94.864 742.288 95.536C741.688 96.184 741.256 96.94 740.992 97.804V109H737.032V90.172H740.632V93.952C741.112 93.112 741.736 92.392 742.504 91.792C743.296 91.168 744.184 90.688 745.168 90.352C746.152 90.016 747.196 89.848 748.3 89.848C749.428 89.848 750.352 90.052 751.072 90.46C751.816 90.868 752.392 91.432 752.8 92.152C753.232 92.848 753.52 93.664 753.664 94.6C753.832 95.512 753.916 96.484 753.916 97.516V109ZM768.848 108.028C768.512 108.196 768.092 108.376 767.588 108.568C767.084 108.76 766.508 108.928 765.86 109.072C765.236 109.216 764.588 109.288 763.916 109.288C763.1 109.288 762.344 109.144 761.648 108.856C760.952 108.568 760.388 108.112 759.956 107.488C759.548 106.84 759.344 106.012 759.344 105.004V93.232H756.86V90.172H759.344V83.98H763.304V90.172H767.408V93.232H763.304V103.744C763.352 104.392 763.556 104.872 763.916 105.184C764.3 105.496 764.768 105.652 765.32 105.652C765.872 105.652 766.4 105.556 766.904 105.364C767.408 105.172 767.78 105.016 768.02 104.896L768.848 108.028ZM779.877 109.36C778.413 109.36 777.081 109.108 775.881 108.604C774.705 108.076 773.685 107.368 772.821 106.48C771.957 105.568 771.285 104.536 770.805 103.384C770.349 102.208 770.121 100.96 770.121 99.64C770.121 97.864 770.529 96.244 771.345 94.78C772.161 93.292 773.301 92.104 774.765 91.216C776.229 90.304 777.945 89.848 779.913 89.848C781.881 89.848 783.573 90.304 784.989 91.216C786.429 92.104 787.545 93.28 788.337 94.744C789.129 96.208 789.525 97.78 789.525 99.46C789.525 99.748 789.513 100.024 789.489 100.288C789.465 100.528 789.441 100.732 789.417 100.9H774.333C774.405 102.004 774.705 102.976 775.233 103.816C775.785 104.632 776.481 105.28 777.321 105.76C778.161 106.216 779.061 106.444 780.021 106.444C781.077 106.444 782.073 106.18 783.009 105.652C783.969 105.124 784.617 104.428 784.953 103.564L788.337 104.536C787.929 105.448 787.305 106.276 786.465 107.02C785.649 107.74 784.677 108.316 783.549 108.748C782.421 109.156 781.197 109.36 779.877 109.36ZM774.225 98.272H785.601C785.529 97.192 785.217 96.244 784.665 95.428C784.137 94.588 783.453 93.94 782.613 93.484C781.797 93.004 780.885 92.764 779.877 92.764C778.893 92.764 777.981 93.004 777.141 93.484C776.325 93.94 775.653 94.588 775.125 95.428C774.597 96.244 774.297 97.192 774.225 98.272ZM803.339 93.592C801.803 93.616 800.435 93.964 799.235 94.636C798.059 95.308 797.219 96.256 796.715 97.48V109H792.755V90.172H796.427V94.384C797.075 93.088 797.927 92.056 798.983 91.288C800.039 90.496 801.155 90.064 802.331 89.992C802.571 89.992 802.763 89.992 802.907 89.992C803.075 89.992 803.219 90.004 803.339 90.028V93.592ZM823.104 109H819.144V98.452C819.144 96.7 818.856 95.416 818.28 94.6C817.728 93.784 816.9 93.376 815.796 93.376C815.028 93.376 814.26 93.568 813.492 93.952C812.748 94.336 812.076 94.864 811.476 95.536C810.876 96.184 810.444 96.94 810.18 97.804V109H806.22V90.172H809.82V93.952C810.3 93.112 810.924 92.392 811.692 91.792C812.484 91.168 813.372 90.688 814.356 90.352C815.34 90.016 816.384 89.848 817.488 89.848C818.616 89.848 819.54 90.052 820.26 90.46C821.004 90.868 821.58 91.432 821.988 92.152C822.42 92.848 822.708 93.664 822.852 94.6C823.02 95.512 823.104 96.484 823.104 97.516V109Z" fill="white"/>
</g>
<defs>
<clipPath id="clip0_390_8297">
<rect width="1440" height="203" fill="white"/>
</clipPath>
</defs>
</svg>
